<svg xmlns="http://www.w3.org/2000/svg" width="18" height="18" fill="none">
  <defs>
    <clipPath id="a">
      <path fill="#fff" fill-opacity="0" d="M0 0h18v18H0z"/>
    </clipPath>
  </defs>
  <path d="M0 0h18v18H0z"/>
  <g clip-path="url(#a)">
    <path fill="#3470FF" d="M15.63 3.458a4.123 4.123 0 0 0-5.835 0L9 4.253l-.795-.795A4.126 4.126 0 1 0 2.37 9.293l.795.795L9 15.922l5.835-5.835.795-.795a4.122 4.122 0 0 0 .895-4.497 4.122 4.122 0 0 0-.895-1.338Z"/>
    <path stroke="#3470FF" stroke-linejoin="round" d="M14.291 2.563a4.124 4.124 0 0 0-4.496.895L9 4.253l-.795-.795A4.126 4.126 0 1 0 2.37 9.293l.795.795L9 15.922l5.835-5.835.795-.795a4.122 4.122 0 0 0 .895-4.497 4.122 4.122 0 0 0-2.233-2.233Z"/>
  </g>
</svg>
